<?xml version="1.0" encoding="utf-8"?>
<svg version="1.1" xmlns:xlink="http://www.w3.org/1999/xlink" width="20px" height="16px" xmlns="http://www.w3.org/2000/svg">
  <g transform="matrix(1 0 0 1 -1412 -283 )">
    <path d="M 19.8939732142857 10.3988095238095  C 19.9646577380952 10.4742063492063  20 10.5634920634921  20 10.6666666666667  L 20 12.952380952381  C 20 13.0555555555556  19.9646577380952 13.1448412698413  19.8939732142857 13.2202380952381  C 19.8232886904762 13.2956349206349  19.7395833333333 13.3333333333333  19.6428571428571 13.3333333333333  L 4.28571428571429 13.3333333333333  L 4.28571428571429 15.6190476190476  C 4.28571428571429 15.7222222222222  4.25037202380952 15.8115079365079  4.1796875 15.8869047619048  C 4.10900297619048 15.9623015873016  4.02529761904762 16  3.92857142857143 16  C 3.83928571428571 16  3.75 15.9603174603175  3.66071428571429 15.8809523809524  L 0.100446428571429 12.0714285714286  C 0.0334821428571429 12  0 11.9126984126984  0 11.8095238095238  C 0 11.6984126984127  0.0334821428571429 11.6071428571429  0.100446428571429 11.5357142857143  L 3.671875 7.72619047619048  C 3.73883928571429 7.65476190476191  3.82440476190476 7.61904761904762  3.92857142857143 7.61904761904762  C 4.02529761904762 7.61904761904762  4.10900297619048 7.65674603174603  4.1796875 7.73214285714286  C 4.25037202380952 7.80753968253968  4.28571428571429 7.8968253968254  4.28571428571429 8  L 4.28571428571429 10  L 19.6428571428571 10  C 19.7395833333333 10.2857142857143  19.8232886904762 10.3234126984127  19.8939732142857 10.3988095238095  Z M 19.8995535714286 3.91666666666667  C 19.9665178571429 3.98809523809524  20 4.07936507936508  20 4.19047619047619  C 20 4.3015873015873  19.9665178571429 4.39285714285714  19.8995535714286 4.46428571428571  L 16.328125 8.27380952380952  C 16.2611607142857 8.34523809523809  16.1755952380952 8.38095238095238  16.0714285714286 8.38095238095238  C 15.9747023809524 8.38095238095238  15.8909970238095 8.34325396825397  15.8203125 8.26785714285714  C 15.7496279761905 8.19246031746032  15.7142857142857 8.1031746031746  15.7142857142857 8  L 15.7142857142857 6  L 0.357142857142857 6  C 0.260416666666667 5.71428571428571  0.17671130952381 5.6765873015873  0.106026785714286 5.60119047619048  C 0.0353422619047619 5.52579365079365  0 5.43650793650794  0 5.33333333333333  L 0 3.04761904761905  C 0 2.94444444444444  0.0353422619047619 2.85515873015873  0.106026785714286 2.77976190476191  C 0.17671130952381 2.70436507936508  0.260416666666667 2.66666666666667  0.357142857142857 2.66666666666667  L 15.7142857142857 2.66666666666667  L 15.7142857142857 0.380952380952381  C 15.7142857142857 0.269841269841269  15.7477678571429 0.178571428571429  15.8147321428571 0.107142857142858  C 15.8816964285714 0.0357142857142865  15.9672619047619 0  16.0714285714286 0  C 16.1607142857143 0  16.25 0.0396825396825395  16.3392857142857 0.119047619047619  L 19.8995535714286 3.91666666666667  Z " fill-rule="nonzero" fill="#b3b7ba" stroke="none" transform="matrix(1 0 0 1 1412 283 )" />
  </g>
</svg>