<?xml version="1.0" encoding="utf-8"?>
<svg version="1.1" xmlns:xlink="http://www.w3.org/1999/xlink" width="31px" height="36px" xmlns="http://www.w3.org/2000/svg">
  <g transform="matrix(1 0 0 1 -1377 -14 )">
    <path d="M 30.794140625 26.02734375  C 30.9313802083333 27.20703125  31 28.4609375  31 29.7890625  C 31 31.4921875  30.4954427083333 32.953125  29.486328125 34.171875  C 28.4772135416667 35.390625  27.2622395833333 36  25.84140625 36  L 5.15859375 36  C 3.73776041666667 36  2.52278645833333 35.390625  1.513671875 34.171875  C 0.504557291666667 32.953125  0 31.4921875  0 29.7890625  C 0 28.4609375  0.0686197916666668 27.20703125  0.205859375 26.02734375  C 0.343098958333334 24.84765625  0.597395833333333 23.66015625  0.96875 22.46484375  C 1.34010416666667 21.26953125  1.81236979166667 20.24609375  2.385546875 19.39453125  C 2.95872395833333 18.54296875  3.717578125 17.84765625  4.662109375 17.30859375  C 5.606640625 16.76953125  6.69244791666667 16.5  7.91953125 16.5  C 10.0346354166667 18.5  12.5614583333333 19.5  15.5 19.5  C 18.4385416666667 19.5  20.9653645833333 18.5  23.08046875 16.5  C 24.3075520833333 16.5  25.393359375 16.76953125  26.337890625 17.30859375  C 27.282421875 17.84765625  28.0412760416667 18.54296875  28.614453125 19.39453125  C 29.1876302083333 20.24609375  29.6598958333333 21.26953125  30.03125 22.46484375  C 30.4026041666667 23.66015625  30.6569010416667 24.84765625  30.794140625 26.02734375  Z M 22.075390625 2.63671875  C 23.891796875 4.39453125  24.8 6.515625  24.8 9  C 24.8 11.484375  23.891796875 13.60546875  22.075390625 15.36328125  C 20.258984375 17.12109375  18.0671875 18  15.5 18  C 12.9328125 18  10.741015625 17.12109375  8.924609375 15.36328125  C 7.108203125 13.60546875  6.2 11.484375  6.2 9  C 6.2 6.515625  7.108203125 4.39453125  8.924609375 2.63671875  C 10.741015625 0.87890625  12.9328125 0  15.5 0  C 18.0671875 0  20.258984375 0.87890625  22.075390625 2.63671875  Z " fill-rule="nonzero" fill="#ffffff" stroke="none" transform="matrix(1 0 0 1 1377 14 )" />
  </g>
</svg>