<?xml version="1.0" encoding="utf-8"?>
<svg version="1.1" xmlns:xlink="http://www.w3.org/1999/xlink" width="15px" height="9px" xmlns="http://www.w3.org/2000/svg">
  <g transform="matrix(1 0 0 1 -1389 -143 )">
    <path d="M 14.7216796875 0.296875  C 14.9072265625 0.494791666666665  15 0.729166666666664  15 1  C 15 1.27083333333333  14.9072265625 1.50520833333333  14.7216796875 1.703125  L 8.1591796875 8.703125  C 7.9736328125 8.90104166666666  7.75390625 9  7.5 9  C 7.24609375 9  7.0263671875 8.90104166666666  6.8408203125 8.703125  L 0.2783203125 1.703125  C 0.0927734375 1.50520833333333  0 1.27083333333333  0 1  C 0 0.729166666666664  0.0927734375 0.494791666666665  0.2783203125 0.296875  C 0.4638671875 0.0989583333333321  0.68359375 0  0.9375 0  L 14.0625 0  C 14.31640625 0  14.5361328125 0.0989583333333321  14.7216796875 0.296875  Z " fill-rule="nonzero" fill="#dfdfdf" stroke="none" transform="matrix(1 0 0 1 1389 143 )" />
  </g>
</svg>