<?xml version="1.0" encoding="utf-8"?>
<svg version="1.1" xmlns:xlink="http://www.w3.org/1999/xlink" width="14px" height="14px" xmlns="http://www.w3.org/2000/svg">
  <g transform="matrix(1 0 0 1 -223 -222 )">
    <path d="M 230 222  C 233.92 222  237 225.08  237 229  C 237 232.92  233.92 236  230 236  C 226.08 236  223 232.92  223 229  C 223 225.08  226.08 222  230 222  Z " fill-rule="nonzero" fill="#ffffff" stroke="none" fill-opacity="0" />
    <path d="M 230 222.5  C 233.64 222.5  236.5 225.36  236.5 229  C 236.5 232.64  233.64 235.5  230 235.5  C 226.36 235.5  223.5 232.64  223.5 229  C 223.5 225.36  226.36 222.5  230 222.5  Z " stroke-width="1" stroke="#d9d9d9" fill="none" />
  </g>
</svg>