<?xml version="1.0" encoding="utf-8"?>
<svg version="1.1" xmlns:xlink="http://www.w3.org/1999/xlink" width="12px" height="11px" xmlns="http://www.w3.org/2000/svg">
  <g transform="matrix(1 0 0 1 -574 -1396 )">
    <path d="M 9.09375 9.947265625  C 9.18509615384615 9.85655381944444  9.23076923076923 9.74913194444444  9.23076923076923 9.625  C 9.23076923076923 9.50086805555556  9.18509615384615 9.39344618055556  9.09375 9.302734375  C 9.00240384615385 9.21202256944444  8.89423076923077 9.16666666666667  8.76923076923077 9.16666666666667  C 8.64423076923077 9.16666666666667  8.53605769230769 9.21202256944444  8.44471153846154 9.302734375  C 8.35336538461539 9.39344618055556  8.30769230769231 9.50086805555556  8.30769230769231 9.625  C 8.30769230769231 9.74913194444444  8.35336538461539 9.85655381944444  8.44471153846154 9.947265625  C 8.53605769230769 10.0379774305556  8.64423076923077 10.0833333333333  8.76923076923077 10.0833333333333  C 8.89423076923077 10.0833333333333  9.00240384615385 10.0379774305556  9.09375 9.947265625  Z M 10.9399038461538 9.947265625  C 11.03125 9.85655381944444  11.0769230769231 9.74913194444444  11.0769230769231 9.625  C 11.0769230769231 9.50086805555556  11.03125 9.39344618055556  10.9399038461538 9.302734375  C 10.8485576923077 9.21202256944444  10.7403846153846 9.16666666666667  10.6153846153846 9.16666666666667  C 10.4903846153846 9.16666666666667  10.3822115384615 9.21202256944444  10.2908653846154 9.302734375  C 10.1995192307692 9.39344618055556  10.1538461538462 9.50086805555556  10.1538461538462 9.625  C 10.1538461538462 9.74913194444444  10.1995192307692 9.85655381944444  10.2908653846154 9.947265625  C 10.3822115384615 10.0379774305556  10.4903846153846 10.0833333333333  10.6153846153846 10.0833333333333  C 10.7403846153846 10.0833333333333  10.8485576923077 10.0379774305556  10.9399038461538 9.947265625  Z M 11.7980769230769 7.53385416666667  C 11.9326923076923 7.66753472222222  12 7.82986111111111  12 8.02083333333333  L 12 10.3125  C 12 10.5034722222222  11.9326923076923 10.6657986111111  11.7980769230769 10.7994791666667  C 11.6634615384615 10.9331597222222  11.5 11  11.3076923076923 11  L 0.692307692307692 11  C 0.5 11  0.336538461538462 10.9331597222222  0.201923076923077 10.7994791666667  C 0.0673076923076923 10.6657986111111  0 10.5034722222222  0 10.3125  L 0 8.02083333333333  C 0 7.82986111111111  0.0673076923076923 7.66753472222222  0.201923076923077 7.53385416666667  C 0.336538461538462 7.40017361111111  0.5 7.33333333333333  0.692307692307692 7.33333333333333  L 4.04567307692308 7.33333333333333  L 5.01923076923077 8.30729166666667  C 5.29807692307692 8.57465277777778  5.625 8.70833333333333  6 8.70833333333333  C 6.375 8.70833333333333  6.70192307692308 8.57465277777778  6.98076923076923 8.30729166666667  L 7.96153846153846 7.33333333333333  L 11.3076923076923 7.33333333333333  C 11.5 7.33333333333333  11.6634615384615 7.40017361111111  11.7980769230769 7.53385416666667  Z M 9.23076923076923 3.66666666666667  C 9.43269230769231 3.66666666666667  9.57451923076923 3.759765625  9.65625 3.94596354166667  C 9.73798076923077 4.14171006944444  9.70432692307692 4.30881076388889  9.55528846153846 4.447265625  L 6.32451923076923 7.65559895833333  C 6.23798076923077 7.74631076388889  6.12980769230769 7.79166666666667  6 7.79166666666667  C 5.87019230769231 7.79166666666667  5.76201923076923 7.74631076388889  5.67548076923077 7.65559895833333  L 2.44471153846154 4.447265625  C 2.29567307692308 4.30881076388889  2.26201923076923 4.14171006944444  2.34375 3.94596354166667  C 2.42548076923077 3.759765625  2.56730769230769 3.66666666666667  2.76923076923077 3.66666666666667  L 4.61538461538462 3.66666666666667  L 4.61538461538462 0.458333333333333  C 4.61538461538462 0.334201388888887  4.66105769230769 0.226779513888887  4.75240384615385 0.136067708333333  C 4.84375 0.0453559027777785  4.95192307692308 0  5.07692307692308 0  L 6.92307692307692 0  C 7.04807692307692 0  7.15625 0.0453559027777785  7.24759615384615 0.136067708333333  C 7.33894230769231 0.226779513888887  7.38461538461539 0.334201388888887  7.38461538461539 0.458333333333333  L 7.38461538461539 3.66666666666667  L 9.23076923076923 3.66666666666667  Z " fill-rule="nonzero" fill="#1890ff" stroke="none" transform="matrix(1 0 0 1 574 1396 )" />
  </g>
</svg>